<svg width="45" height="45" viewBox="0 0 51 51" fill="none" xmlns="http://www.w3.org/2000/svg">
<path d="M44.8586 47.8762L41.1101 44.1298C40.8381 44.3182 40.5406 44.4479 40.2176 44.5187C39.8946 44.5895 39.6205 44.625 39.3953 44.625H12.7499C11.5514 44.625 10.5434 44.2163 9.72602 43.3988C8.9086 42.5814 8.49989 41.5735 8.49989 40.375V36.125H14.8749V17.8946L4.00977 7.02946L5.52489 5.51221L46.3738 46.3611L44.8586 47.8762ZM12.7499 42.5H39.4803L35.2303 38.25H10.6249V40.375C10.6249 40.977 10.8289 41.4821 11.2369 41.8901C11.6449 42.2981 12.1492 42.5014 12.7499 42.5ZM42.4999 36.5372L40.3749 34.4122V10.625H16.5876L14.8749 8.91221V7.19096L17.5736 9.07158L20.351 7.19308L23.1305 9.07158L25.9079 7.19308L28.6874 9.07158L31.4669 7.19308L34.2464 9.07158L37.0238 7.19308L39.8033 9.07158L42.4999 7.19096V36.5372ZM16.9999 36.125H33.1053L16.9999 20.0196V36.125ZM24.0485 18.0625L21.9235 15.9375H31.3033V18.0625H24.0485ZM30.4235 24.4375L28.2985 22.3125H31.3033V24.4375H30.4235ZM35.8784 25.0112C35.4406 25.0112 35.0588 24.8483 34.733 24.5225C34.4072 24.1966 34.2443 23.8141 34.2443 23.375C34.2443 22.9358 34.4072 22.5533 34.733 22.2275C35.0588 21.9016 35.4413 21.7387 35.8805 21.7387C36.3197 21.7387 36.7015 21.9016 37.0259 22.2275C37.3503 22.5533 37.5132 22.9358 37.5146 23.375C37.5161 23.8141 37.3531 24.1966 37.0259 24.5225C36.6986 24.8483 36.3161 25.0112 35.8784 25.0112ZM35.8784 18.6362C35.4406 18.6362 35.0588 18.4733 34.733 18.1475C34.4072 17.8216 34.2443 17.4391 34.2443 17C34.2443 16.5608 34.4072 16.1783 34.733 15.8525C35.0588 15.5266 35.4413 15.3637 35.8805 15.3637C36.3197 15.3637 36.7015 15.5266 37.0259 15.8525C37.3503 16.1783 37.5132 16.5608 37.5146 17C37.5161 17.4391 37.3531 17.8216 37.0259 18.1475C36.6986 18.4733 36.3161 18.6362 35.8784 18.6362Z" fill="white"/>
</svg>
