<svg width="45" height="45" viewBox="0 0 40 40" fill="none" xmlns="http://www.w3.org/2000/svg">
<path d="M16.875 11.25H28.125C28.125 9.75816 27.5324 8.32742 26.4775 7.27252C25.4226 6.21763 23.9918 5.625 22.5 5.625C21.0082 5.625 19.5774 6.21763 18.5225 7.27252C17.4676 8.32742 16.875 9.75816 16.875 11.25ZM13.125 11.25C13.125 8.7636 14.1127 6.37903 15.8709 4.62087C17.629 2.86272 20.0136 1.875 22.5 1.875C24.9864 1.875 27.371 2.86272 29.1291 4.62087C30.8873 6.37903 31.875 8.7636 31.875 11.25H37.5C37.9973 11.25 38.4742 11.4475 38.8258 11.7992C39.1775 12.1508 39.375 12.6277 39.375 13.125V39.375C39.375 39.8723 39.1775 40.3492 38.8258 40.7008C38.4742 41.0525 37.9973 41.25 37.5 41.25H7.5C7.00272 41.25 6.52581 41.0525 6.17417 40.7008C5.82254 40.3492 5.625 39.8723 5.625 39.375V13.125C5.625 12.6277 5.82254 12.1508 6.17417 11.7992C6.52581 11.4475 7.00272 11.25 7.5 11.25H13.125ZM9.375 15V37.5H35.625V15H9.375ZM16.875 18.75C16.875 20.2418 17.4676 21.6726 18.5225 22.7275C19.5774 23.7824 21.0082 24.375 22.5 24.375C23.9918 24.375 25.4226 23.7824 26.4775 22.7275C27.5324 21.6726 28.125 20.2418 28.125 18.75H31.875C31.875 21.2364 30.8873 23.621 29.1291 25.3791C27.371 27.1373 24.9864 28.125 22.5 28.125C20.0136 28.125 17.629 27.1373 15.8709 25.3791C14.1127 23.621 13.125 21.2364 13.125 18.75H16.875Z" fill="white"/>
</svg>
