<svg width="637" height="632" viewBox="0 0 637 632" fill="none" xmlns="http://www.w3.org/2000/svg">
<path d="M318.261 39C392.061 39 462.837 68.1312 515.021 119.985C567.206 171.839 596.522 242.168 596.522 315.5C596.522 388.832 567.206 459.161 515.021 511.015C462.837 562.869 392.061 592 318.261 592C244.462 592 173.685 562.869 121.501 511.015C69.3167 459.161 40 388.832 40 315.5C40 242.168 69.3167 171.839 121.501 119.985C173.685 68.1312 244.462 39 318.261 39ZM283.598 370.049L221.784 308.587C219.568 306.386 216.937 304.639 214.042 303.447C211.147 302.255 208.043 301.642 204.909 301.642C201.776 301.642 198.672 302.255 195.777 303.447C192.882 304.639 190.251 306.386 188.035 308.587C183.56 313.035 181.045 319.066 181.045 325.355C181.045 331.644 183.56 337.676 188.035 342.123L266.743 420.333C268.953 422.546 271.581 424.303 274.478 425.501C277.374 426.7 280.48 427.317 283.618 427.317C286.755 427.317 289.861 426.7 292.758 425.501C295.654 424.303 298.283 422.546 300.492 420.333L463.474 258.344C465.719 256.151 467.506 253.538 468.73 250.655C469.954 247.773 470.592 244.678 470.607 241.55C470.621 238.421 470.013 235.321 468.815 232.428C467.618 229.534 465.856 226.905 463.631 224.691C461.406 222.478 458.762 220.724 455.852 219.531C452.941 218.338 449.822 217.729 446.673 217.74C443.525 217.751 440.41 218.381 437.508 219.594C434.605 220.807 431.974 222.579 429.764 224.808L283.598 370.049Z" fill="#2CAA14"/>
</svg>
